<svg width="26" height="26" viewBox="0 0 26 26" fill="none" xmlns="http://www.w3.org/2000/svg">
<path d="M10.4064 2.60011C8.33643 2.60011 6.35125 3.4224 4.88757 4.88608C3.42389 6.34977 2.6016 8.33495 2.6016 10.4049C2.6016 12.4749 3.42389 14.46 4.88757 15.9237C6.35125 17.3874 8.33643 18.2097 10.4064 18.2097C12.4764 18.2097 14.4615 17.3874 15.9252 15.9237C17.3889 14.46 18.2112 12.4749 18.2112 10.4049C18.2112 8.33495 17.3889 6.34977 15.9252 4.88608C14.4615 3.4224 12.4764 2.60011 10.4064 2.60011ZM6.42806e-08 10.4049C0.00023717 8.74881 0.395727 7.11668 1.1536 5.64417C1.91147 4.17165 3.00984 2.90128 4.35742 1.93863C5.705 0.975985 7.26288 0.348861 8.90157 0.109379C10.5403 -0.130102 12.2124 0.0249764 13.7792 0.561726C15.3459 1.09848 16.7618 2.00139 17.9094 3.19544C19.057 4.38949 19.903 5.84018 20.3771 7.42696C20.8513 9.01373 20.9399 10.6907 20.6356 12.3186C20.3313 13.9465 19.6428 15.4783 18.6274 16.7866L25.6348 23.794C25.8718 24.0394 26.0029 24.368 26 24.709C25.997 25.0501 25.8602 25.3763 25.619 25.6175C25.3778 25.8587 25.0516 25.9955 24.7105 25.9985C24.3694 26.0014 24.0409 25.8703 23.7955 25.6334L16.7881 18.626C15.2499 19.8202 13.4074 20.5589 11.4701 20.7579C9.53292 20.957 7.5787 20.6085 5.82972 19.752C4.08074 18.8956 2.60718 17.5655 1.5766 15.9131C0.546022 14.2607 -0.00021635 12.3523 6.42806e-08 10.4049Z" fill="#3B3B3B"/>
</svg>
