<svg width="42" height="38" viewBox="0 0 42 38" fill="none" xmlns="http://www.w3.org/2000/svg">
<path d="M1.13142 18.8262L1.86912 18.9615L1.86913 18.9614L1.13142 18.8262ZM4.01666 15.1678L4.43761 15.7885L4.43763 15.7885L4.01666 15.1678ZM13.7111 13.0498L13.7389 13.7993L13.7389 13.7993L13.7111 13.0498ZM21 13.0018L20.9983 13.7518L21.0017 13.7518L21 13.0018ZM28.2888 13.0498L28.261 13.7993L28.2611 13.7993L28.2888 13.0498ZM37.9834 15.1678L37.5624 15.7885L37.5625 15.7885L37.9834 15.1678ZM40.8686 18.8262L40.1309 18.9614L40.1309 18.9615L40.8686 18.8262ZM40.8076 26.2346L41.5548 26.2999L41.5548 26.2998L40.8076 26.2346ZM40.3812 28.5688L41.0104 28.977L41.0104 28.977L40.3812 28.5688ZM35.8864 30.5868L35.7452 29.8502L35.7452 29.8502L35.8864 30.5868ZM6.11366 30.5868L6.25487 29.8502L6.25483 29.8502L6.11366 30.5868ZM1.6188 28.5688L0.989518 28.9769L0.989625 28.977L1.6188 28.5688ZM1.1924 26.2346L0.445243 26.2999L0.445245 26.2999L1.1924 26.2346ZM5.27988 12.7903C5.16407 13.188 5.39259 13.6043 5.79028 13.7201C6.18798 13.8359 6.60426 13.6074 6.72006 13.2097L5.27988 12.7903ZM8.62647 3.98022L7.93061 3.70045C7.92138 3.7234 7.91329 3.74679 7.90638 3.77053L8.62647 3.98022ZM9.99733 2.65432L10.2388 3.36439L10.2388 3.36438L9.99733 2.65432ZM32.0026 2.65432L31.7611 3.36438L31.7611 3.36439L32.0026 2.65432ZM33.3736 3.98022L34.0937 3.77054C34.0867 3.74674 34.0786 3.72329 34.0694 3.70029L33.3736 3.98022ZM35.2799 13.2097C35.3957 13.6074 35.812 13.8359 36.2097 13.7201C36.6074 13.6043 36.8359 13.188 36.7201 12.7903L35.2799 13.2097ZM2.23711 18.2885C1.84415 18.1575 1.41941 18.3699 1.28843 18.7628C1.15744 19.1558 1.36981 19.5805 1.76277 19.7115L2.23711 18.2885ZM4.76277 20.7115C5.15573 20.8425 5.58047 20.6301 5.71145 20.2372C5.84244 19.8442 5.63007 19.4195 5.23711 19.2885L4.76277 20.7115ZM40.2371 19.7115C40.6301 19.5805 40.8425 19.1558 40.7115 18.7628C40.5805 18.3699 40.1558 18.1575 39.7628 18.2885L40.2371 19.7115ZM36.7628 19.2885C36.3698 19.4195 36.1575 19.8442 36.2885 20.2372C36.4194 20.6301 36.8442 20.8425 37.2371 20.7115L36.7628 19.2885ZM12.3036 29.7215C12.1498 30.1061 12.3369 30.5425 12.7215 30.6964C13.1061 30.8502 13.5425 30.6631 13.6964 30.2785L12.3036 29.7215ZM13.4913 28.7716L12.795 28.493L12.795 28.4931L13.4913 28.7716ZM15.3492 25.5158L15.7697 26.1369L15.7697 26.1368L15.3492 25.5158ZM28.5086 28.7716L27.8122 29.0501L27.8123 29.0502L28.5086 28.7716ZM28.3037 30.2786C28.4575 30.6631 28.894 30.8502 29.2786 30.6963C29.6632 30.5425 29.8502 30.106 29.6964 29.7214L28.3037 30.2786ZM11.7532 32.1246C11.7532 31.7104 11.4174 31.3746 11.0032 31.3746C10.589 31.3746 10.2532 31.7104 10.2532 32.1246H11.7532ZM11.0032 33.7288L10.2532 33.7288L10.2532 33.7289L11.0032 33.7288ZM10.3988 36.3158L10.9198 36.8553L10.9202 36.8549L10.3988 36.3158ZM9.7012 36.7938L10.0339 37.466L10.0343 37.4658L9.7012 36.7938ZM2.32852 36.7752L2.01949 37.4586L2.01971 37.4587L2.32852 36.7752ZM1.56112 36.2256L2.1381 35.7464L2.13794 35.7462L1.56112 36.2256ZM1.00778 32.0918L0.257781 32.0917L0.257783 32.0929L1.00778 32.0918ZM1.75912 25.0001C1.7592 24.5859 1.42348 24.2501 1.00926 24.25C0.59505 24.2499 0.2592 24.5856 0.259122 24.9999L1.75912 25.0001ZM31.7468 32.1246C31.7468 31.7104 31.411 31.3746 30.9968 31.3746C30.5826 31.3746 30.2468 31.7104 30.2468 32.1246H31.7468ZM30.9968 33.7288L31.7468 33.7289V33.7288H30.9968ZM31.6012 36.3158L31.0798 36.8549L31.08 36.8551L31.6012 36.3158ZM32.2988 36.7938L31.9657 37.4658L31.9661 37.466L32.2988 36.7938ZM39.6714 36.7752L39.9802 37.4587L39.9804 37.4586L39.6714 36.7752ZM40.4388 36.2256L39.862 35.7462L39.8616 35.7467L40.4388 36.2256ZM40.9922 32.0918L41.7422 32.0929L41.7422 32.0917L40.9922 32.0918ZM41.7408 24.9999C41.7407 24.5856 41.4049 24.2499 40.9907 24.25C40.5764 24.2501 40.2407 24.5859 40.2408 25.0001L41.7408 24.9999ZM36.7628 12.2885C36.3698 12.4195 36.1575 12.8442 36.2885 13.2372C36.4194 13.6301 36.8442 13.8425 37.2371 13.7115L36.7628 12.2885ZM40.2371 12.7115C40.6301 12.5805 40.8425 12.1558 40.7115 11.7628C40.5805 11.3699 40.1558 11.1575 39.7628 11.2885L40.2371 12.7115ZM4.76277 13.7115C5.15573 13.8425 5.58047 13.6301 5.71145 13.2372C5.84244 12.8442 5.63007 12.4195 5.23711 12.2885L4.76277 13.7115ZM2.23711 11.2885C1.84415 11.1575 1.41941 11.3699 1.28843 11.7628C1.15744 12.1558 1.36981 12.5805 1.76277 12.7115L2.23711 11.2885ZM1.86913 18.9614C2.0481 17.9851 2.87615 16.8474 4.43761 15.7885L3.59571 14.5471C1.87948 15.711 0.676457 17.1485 0.39371 18.691L1.86913 18.9614ZM4.43763 15.7885C7.1746 13.9323 10.2999 13.9266 13.7389 13.7993L13.6834 12.3003C10.3756 12.4228 6.76044 12.4007 3.59568 14.5471L4.43763 15.7885ZM13.7389 13.7993C14.8406 13.7585 17.8302 13.7446 20.9983 13.7518L21.0017 12.2518C17.8434 12.2447 14.8208 12.2582 13.6834 12.3003L13.7389 13.7993ZM21.0017 13.7518C24.1698 13.7446 27.1595 13.7585 28.261 13.7993L28.3166 12.3003C27.1793 12.2582 24.1566 12.2447 20.9983 12.2518L21.0017 13.7518ZM28.2611 13.7993C31.7 13.9266 34.8253 13.9323 37.5624 15.7885L38.4044 14.5471C35.2395 12.4007 31.6244 12.4228 28.3166 12.3003L28.2611 13.7993ZM37.5625 15.7885C39.1239 16.8475 39.952 17.9851 40.1309 18.9614L41.6063 18.691C41.3236 17.1485 40.1205 15.7109 38.4044 14.5471L37.5625 15.7885ZM40.1309 18.9615C40.2151 19.4204 40.2597 20.5468 40.2482 21.9479C40.2369 23.3223 40.1727 24.884 40.0605 26.1694L41.5548 26.2998C41.6711 24.9674 41.7366 23.3654 41.7481 21.9603C41.7595 20.5819 41.7204 19.313 41.6063 18.6909L40.1309 18.9615ZM40.0605 26.1693C40.0007 26.853 39.9423 27.338 39.8801 27.6786C39.8491 27.848 39.8195 27.969 39.7928 28.0537C39.7652 28.1414 39.7478 28.1671 39.752 28.1606L41.0104 28.977C41.189 28.7017 41.285 28.3348 41.3557 27.948C41.4307 27.5371 41.4939 26.9962 41.5548 26.2999L40.0605 26.1693ZM39.752 28.1606C39.5913 28.4083 39.2093 28.7257 38.4994 29.0443C37.8076 29.355 36.8822 29.6323 35.7452 29.8502L36.0276 31.3234C37.2374 31.0915 38.2831 30.7857 39.1138 30.4128C39.9266 30.0479 40.6185 29.5811 41.0104 28.977L39.752 28.1606ZM35.7452 29.8502C33.6321 30.2553 34.0549 30.25 21 30.25V31.75C33.9679 31.75 33.7359 31.7627 36.0276 31.3234L35.7452 29.8502ZM21 30.25C7.94502 30.25 8.36796 30.2553 6.25487 29.8502L5.97245 31.3234C8.26408 31.7627 8.03202 31.75 21 31.75V30.25ZM6.25483 29.8502C5.11782 29.6323 4.19241 29.355 3.50059 29.0443C2.79078 28.7257 2.40871 28.4083 2.24797 28.1606L0.989625 28.977C1.38155 29.5811 2.07347 30.0478 2.8862 30.4128C3.71692 30.7857 4.76262 31.0915 5.97248 31.3234L6.25483 29.8502ZM2.24808 28.1608C2.25222 28.1671 2.23486 28.1414 2.20723 28.0537C2.18055 27.969 2.1509 27.848 2.11994 27.6785C2.05773 27.338 1.99929 26.853 1.93955 26.1693L0.445245 26.2999C0.506089 26.9962 0.569287 27.5371 0.644354 27.9481C0.715011 28.3349 0.811094 28.7017 0.989518 28.9769L2.24808 28.1608ZM1.93955 26.1693C1.82729 24.884 1.76313 23.3223 1.75181 21.9479C1.74027 20.5468 1.78497 19.4204 1.86912 18.9615L0.393718 18.6909C0.279651 19.313 0.240512 20.5819 0.251861 21.9603C0.26343 23.3654 0.328864 24.9674 0.445243 26.2999L1.93955 26.1693ZM6.72006 13.2097L9.34656 4.18991L7.90638 3.77053L5.27988 12.7903L6.72006 13.2097ZM9.32234 4.25999C9.49206 3.83783 9.8091 3.51051 10.2388 3.36439L9.75587 1.94425C8.86404 2.24753 8.24336 2.92253 7.93061 3.70045L9.32234 4.25999ZM10.2388 3.36438C16.5682 1.21187 25.4317 1.21187 31.7611 3.36438L32.2441 1.94426C25.6015 -0.314752 16.3984 -0.314753 9.75585 1.94426L10.2388 3.36438ZM31.7611 3.36439C32.1908 3.5105 32.5079 3.83782 32.6778 4.26015L34.0694 3.70029C33.7565 2.92254 33.1359 2.24754 32.244 1.94425L31.7611 3.36439ZM32.6535 4.1899L35.2799 13.2097L36.7201 12.7903L34.0937 3.77054L32.6535 4.1899ZM1.76277 19.7115L4.76277 20.7115L5.23711 19.2885L2.23711 18.2885L1.76277 19.7115ZM39.7628 18.2885L36.7628 19.2885L37.2371 20.7115L40.2371 19.7115L39.7628 18.2885ZM13.6964 30.2785L14.1877 29.0501L12.795 28.4931L12.3036 29.7215L13.6964 30.2785ZM14.1877 29.0502C14.5592 28.1215 14.8163 27.4815 15.0704 27.005C15.3157 26.5449 15.526 26.3018 15.7697 26.1369L14.9288 24.8947C14.4106 25.2456 14.0573 25.7171 13.7468 26.2993C13.4451 26.8651 13.1542 27.5951 12.795 28.493L14.1877 29.0502ZM15.7697 26.1368C16.0134 25.9719 16.3172 25.8669 16.8355 25.81C17.3723 25.751 18.062 25.75 19.0622 25.75V24.25C18.095 24.25 17.3092 24.249 16.6718 24.319C16.0159 24.391 15.4469 24.5439 14.9287 24.8948L15.7697 26.1368ZM19.0622 25.75H22.9378V24.25H19.0622V25.75ZM22.9378 25.75C23.938 25.75 24.6278 25.751 25.1645 25.81C25.6829 25.8669 25.9867 25.9719 26.2303 26.1368L27.0713 24.8948C26.5531 24.5439 25.9841 24.391 25.3283 24.319C24.6908 24.249 23.905 24.25 22.9378 24.25V25.75ZM26.2303 26.1368C26.474 26.3018 26.6843 26.5449 26.9296 27.005C27.1837 27.4815 27.4408 28.1215 27.8122 29.0501L29.205 28.4931C28.8458 27.5951 28.5549 26.8651 28.2532 26.2993C27.9428 25.7171 27.5895 25.2456 27.0713 24.8948L26.2303 26.1368ZM27.8123 29.0502L28.3037 30.2786L29.6964 29.7214L29.205 28.493L27.8123 29.0502ZM10.2532 32.1246V33.7288H11.7532V32.1246H10.2532ZM10.2532 33.7289C10.2532 34.6228 10.2305 35.0514 10.1687 35.316C10.1261 35.4984 10.0734 35.5871 9.87739 35.7767L10.9202 36.8549C11.2521 36.5339 11.5017 36.2035 11.6293 35.6573C11.7378 35.1932 11.7532 34.5836 11.7532 33.7288L10.2532 33.7289ZM9.87777 35.7763C9.78804 35.863 9.54079 36.0362 9.3681 36.1218L10.0343 37.4658C10.3199 37.3242 10.7006 37.067 10.9198 36.8553L9.87777 35.7763ZM9.36852 36.1216C9.2865 36.1622 9.26048 36.1718 9.22219 36.1811C9.16979 36.1938 9.07069 36.2102 8.85171 36.2226C8.40612 36.2478 7.62311 36.25 6.05532 36.25V37.75C7.59758 37.75 8.43687 37.7484 8.9364 37.7202C9.18998 37.7058 9.39414 37.683 9.57702 37.6385C9.77401 37.5906 9.91528 37.5247 10.0339 37.466L9.36852 36.1216ZM6.05532 36.25C4.45054 36.25 3.67236 36.2488 3.22835 36.222C3.01333 36.209 2.91365 36.1917 2.85488 36.1768C2.80077 36.163 2.75789 36.1462 2.63734 36.0917L2.01971 37.4587C2.14415 37.5149 2.29214 37.5815 2.48587 37.6307C2.67495 37.6787 2.88011 37.7037 3.13805 37.7193C3.63997 37.7495 4.48019 37.75 6.05532 37.75V36.25ZM2.63756 36.0918C2.55579 36.0548 2.44383 35.9895 2.33444 35.9112C2.21833 35.828 2.15336 35.7648 2.1381 35.7464L0.984141 36.7048C1.1172 36.865 1.29905 37.0147 1.46113 37.1307C1.62991 37.2516 1.8275 37.3718 2.01949 37.4586L2.63756 36.0918ZM2.13794 35.7462C2.01256 35.5954 1.96379 35.5248 1.93017 35.455C1.89903 35.3904 1.86276 35.2872 1.83332 35.0672C1.76932 34.5892 1.76026 33.7766 1.75778 32.0907L0.257783 32.0929C0.260183 33.725 0.266009 34.6643 0.346578 35.2662C0.389409 35.5862 0.457846 35.8549 0.578773 36.106C0.697222 36.3519 0.847904 36.5408 0.984308 36.705L2.13794 35.7462ZM1.75778 32.0919L1.75912 25.0001L0.259122 24.9999L0.257782 32.0917L1.75778 32.0919ZM30.2468 32.1246V33.7288H31.7468V32.1246H30.2468ZM30.2468 33.7287C30.2467 34.5835 30.2622 35.1932 30.3706 35.6573C30.4982 36.2035 30.7479 36.5339 31.0798 36.8549L32.1226 35.7767C31.9265 35.5871 31.8739 35.4984 31.8313 35.316C31.7694 35.0514 31.7467 34.6229 31.7468 33.7289L30.2468 33.7287ZM31.08 36.8551C31.2993 37.067 31.6801 37.3242 31.9657 37.4658L32.6319 36.1218C32.4591 36.0362 32.2119 35.863 32.1224 35.7765L31.08 36.8551ZM31.9661 37.466C32.0847 37.5247 32.226 37.5906 32.423 37.6385C32.6058 37.683 32.81 37.7058 33.0636 37.7202C33.5631 37.7484 34.4024 37.75 35.9446 37.75V36.25C34.3768 36.25 33.5938 36.2478 33.1483 36.2226C32.9293 36.2102 32.8302 36.1938 32.7778 36.1811C32.7395 36.1718 32.7135 36.1622 32.6315 36.1216L31.9661 37.466ZM35.9446 37.75C37.5198 37.75 38.36 37.7495 38.8619 37.7193C39.1198 37.7037 39.325 37.6787 39.5141 37.6307C39.7078 37.5815 39.8558 37.5149 39.9802 37.4587L39.3626 36.0917C39.242 36.1462 39.1992 36.163 39.145 36.1768C39.0863 36.1917 38.9866 36.209 38.7716 36.222C38.3276 36.2488 37.5494 36.25 35.9446 36.25V37.75ZM39.9804 37.4586C40.1724 37.3718 40.37 37.2516 40.5388 37.1307C40.7009 37.0147 40.8829 36.8649 41.016 36.7045L39.8616 35.7467C39.8616 35.7467 39.8616 35.7468 39.8614 35.747C39.8612 35.7472 39.8609 35.7475 39.8605 35.748C39.8598 35.7488 39.8587 35.75 39.8573 35.7516C39.8543 35.7548 39.8503 35.759 39.8449 35.7643C39.8341 35.7751 39.8197 35.7886 39.8015 35.8046C39.7647 35.8367 39.7184 35.8733 39.6656 35.9112C39.5562 35.9895 39.4442 36.0548 39.3624 36.0918L39.9804 37.4586ZM41.0156 36.705C41.152 36.5408 41.3027 36.3519 41.4212 36.106C41.5421 35.8549 41.6105 35.5862 41.6534 35.2662C41.7339 34.6644 41.7397 33.725 41.7422 32.0929L40.2422 32.0907C40.2397 33.7766 40.2306 34.5891 40.1666 35.0672C40.1372 35.2872 40.1009 35.3904 40.0698 35.455C40.0361 35.5248 39.9874 35.5954 39.862 35.7462L41.0156 36.705ZM41.7422 32.0917L41.7408 24.9999L40.2408 25.0001L40.2422 32.0919L41.7422 32.0917ZM37.2371 13.7115L40.2371 12.7115L39.7628 11.2885L36.7628 12.2885L37.2371 13.7115ZM5.23711 12.2885L2.23711 11.2885L1.76277 12.7115L4.76277 13.7115L5.23711 12.2885Z" fill="white"/>
</svg>
