<svg width="15" height="13" viewBox="0 0 15 13" fill="none" xmlns="http://www.w3.org/2000/svg">
<path d="M6.9882 6.17992C6.9882 6.42614 7.12129 6.65183 7.38746 6.85701C7.65363 7.06218 7.94199 7.28788 8.25253 7.53409C8.56306 7.7803 8.85142 8.07986 9.11759 8.43277C9.38377 8.78567 9.51685 9.23295 9.51685 9.77462C9.51685 10.6117 9.12646 11.3504 8.34569 11.9905C7.47618 12.6635 6.29615 13 4.80557 13C4.39744 13 3.97156 12.959 3.52793 12.8769C3.08431 12.7948 2.6673 12.6594 2.27692 12.4706C1.88653 12.2819 1.56712 12.0316 1.31869 11.7197C1.07026 11.4078 0.946045 11.0221 0.946045 10.5625C0.946045 10.2178 1.04364 9.8649 1.23884 9.50379C1.43403 9.1755 1.70908 8.89236 2.06398 8.65436C2.41888 8.41635 2.82701 8.23169 3.28838 8.10038C4.15788 7.85417 5.01851 7.72285 5.87027 7.70644C5.49762 7.29609 5.3113 6.91035 5.3113 6.54924C5.3113 6.41793 5.33792 6.30303 5.39115 6.20455C5.4089 6.17172 5.42664 6.11837 5.44439 6.04451C5.46213 5.97064 5.47988 5.9173 5.49762 5.88447C5.39115 5.88447 5.28912 5.88857 5.19152 5.89678C5.09393 5.90499 5.00076 5.90909 4.91204 5.90909C4.04254 5.90909 3.32387 5.65467 2.75603 5.14583C2.1527 4.637 1.85104 3.99684 1.85104 3.22538C1.85104 2.50316 2.11721 1.8548 2.64956 1.2803C3.18191 0.689394 3.84734 0.320076 4.64587 0.172348C4.91204 0.123106 5.17378 0.0820707 5.43108 0.0492424C5.68838 0.0164141 5.95012 0 6.21629 0H9.91611L8.77157 0.61553H7.62702C8.0529 0.878157 8.36343 1.20644 8.55863 1.60038C8.77157 2.02715 8.87804 2.47033 8.87804 2.92992C8.87804 3.30745 8.81593 3.64804 8.69171 3.9517C8.5675 4.25537 8.40779 4.49748 8.2126 4.67803C7.92868 4.95707 7.65363 5.20739 7.38746 5.42898C7.12129 5.65057 6.9882 5.90088 6.9882 6.17992ZM5.73718 5.51515C6.28727 5.51515 6.6821 5.35922 6.92166 5.04735C7.16121 4.73548 7.28099 4.31692 7.28099 3.79167C7.28099 3.1351 7.10354 2.46212 6.74864 1.77273C6.57119 1.44444 6.33164 1.17361 6.02997 0.960227C5.72831 0.746843 5.39115 0.640152 5.01851 0.640152C4.50391 0.640152 4.10465 0.820707 3.82073 1.18182C3.53681 1.54293 3.39485 1.9697 3.39485 2.46212C3.39485 2.75758 3.44365 3.08586 3.54124 3.44697C3.63884 3.80808 3.78967 4.14047 3.99374 4.44413C4.19781 4.74779 4.44624 5.00221 4.73903 5.20739C5.03182 5.41256 5.36454 5.51515 5.73718 5.51515ZM5.63071 12.3598C5.95012 12.3598 6.26953 12.327 6.58894 12.2614C6.90835 12.1957 7.1967 12.0931 7.454 11.9536C7.71131 11.8141 7.91537 11.6294 8.0662 11.3996C8.21704 11.1698 8.29245 10.8826 8.29245 10.5379C8.29245 10.423 8.28358 10.3122 8.26583 10.2055C8.24809 10.0988 8.22147 10.0044 8.18598 9.92235C8.15049 9.84028 8.09726 9.75 8.02628 9.65152C7.9553 9.56944 7.89763 9.49558 7.85326 9.42992C7.8089 9.36427 7.73349 9.2822 7.62702 9.18371C7.55604 9.13447 7.47618 9.06881 7.38746 8.98674C7.35197 8.97033 7.31648 8.94571 7.28099 8.91288C7.2455 8.88005 7.19227 8.83902 7.12129 8.78977L6.85511 8.61742C6.80188 8.5846 6.71315 8.52715 6.58894 8.44508L6.32276 8.27273C6.28727 8.27273 6.2296 8.26862 6.14975 8.26042C6.0699 8.25221 5.98561 8.24811 5.89688 8.24811C5.29356 8.24811 4.6991 8.33018 4.11352 8.49432C3.65215 8.62563 3.26176 8.83491 2.94235 9.12216C2.62294 9.40941 2.46324 9.79924 2.46324 10.2917C2.46324 10.6528 2.56083 10.9688 2.75603 11.2396C2.95122 11.5104 3.2174 11.7279 3.55455 11.892C4.17562 12.2039 4.86768 12.3598 5.63071 12.3598ZM15 1.99432V3.00379H12.8174V4.99811H11.7527V3.00379H9.59671V1.99432H11.7527V0H12.8174V1.99432H15Z" fill="#FFF9F9"/>
</svg>
