<svg width="38" height="34" viewBox="0 0 38 34" fill="none" xmlns="http://www.w3.org/2000/svg">
<g filter="url(#filter0_d_21_66)">
<path d="M5.7543 12.8841L6.492 13.0194L6.49201 13.0194L5.7543 12.8841ZM7.67779 10.4452L8.09874 11.0659L8.09877 11.0659L7.67779 10.4452ZM14.1408 9.03321L14.1685 9.7827L14.1686 9.7827L14.1408 9.03321ZM19 9.00121L18.9983 9.75122L19.0017 9.75121L19 9.00121ZM23.8592 9.03321L23.8314 9.7827L23.8315 9.7827L23.8592 9.03321ZM30.3223 10.4452L29.9013 11.0659L29.9013 11.0659L30.3223 10.4452ZM32.2458 12.8841L31.508 13.0193L31.5081 13.0194L32.2458 12.8841ZM32.2051 17.8231L32.9522 17.8884L32.9522 17.8883L32.2051 17.8231ZM31.9208 19.3792L32.55 19.7874L32.55 19.7874L31.9208 19.3792ZM28.9243 20.7245L28.7831 19.9879L28.7831 19.9879L28.9243 20.7245ZM9.07579 20.7245L9.217 19.9879L9.21697 19.9879L9.07579 20.7245ZM6.07922 19.3792L5.44994 19.7873L5.45005 19.7874L6.07922 19.3792ZM5.79495 17.8231L5.0478 17.8883L5.0478 17.8884L5.79495 17.8231ZM8.27991 8.79031C8.1641 9.18801 8.39262 9.60429 8.79031 9.72009C9.18801 9.8359 9.60429 9.60738 9.72009 9.20969L8.27991 8.79031ZM10.751 2.98681L10.0551 2.70705C10.0459 2.72999 10.0378 2.75338 10.0309 2.77713L10.751 2.98681ZM11.6649 2.10288L11.9064 2.81295L11.9064 2.81294L11.6649 2.10288ZM26.3351 2.10288L26.0936 2.81294L26.0936 2.81295L26.3351 2.10288ZM27.2491 2.98681L27.9692 2.77714C27.9622 2.75333 27.9541 2.72989 27.9449 2.70689L27.2491 2.98681ZM28.2799 9.20968C28.3957 9.60738 28.812 9.8359 29.2097 9.72009C29.6074 9.60429 29.8359 9.18802 29.7201 8.79032L28.2799 9.20968ZM6.57048 12.2885C6.17753 12.1575 5.75279 12.3699 5.6218 12.7628C5.49081 13.1558 5.70318 13.5805 6.09614 13.7115L6.57048 12.2885ZM8.09614 14.3782C8.4891 14.5092 8.91384 14.2968 9.04483 13.9038C9.17581 13.5109 8.96344 13.0861 8.57048 12.9552L8.09614 14.3782ZM31.9038 13.7115C32.2968 13.5805 32.5092 13.1558 32.3782 12.7628C32.2472 12.3699 31.8224 12.1575 31.4295 12.2885L31.9038 13.7115ZM29.4295 12.9552C29.0365 13.0861 28.8242 13.5109 28.9551 13.9038C29.0861 14.2968 29.5109 14.5092 29.9038 14.3782L29.4295 12.9552ZM12.9703 20.0548C12.8165 20.4394 13.0036 20.8759 13.3882 21.0297C13.7727 21.1835 14.2092 20.9965 14.363 20.6119L12.9703 20.0548ZM13.9942 19.5144L13.2979 19.2358L13.2979 19.2359L13.9942 19.5144ZM15.2328 17.3439L15.6533 17.9649L15.6533 17.9649L15.2328 17.3439ZM24.0058 19.5144L23.3094 19.7929L23.3094 19.793L24.0058 19.5144ZM23.637 20.6119C23.7909 20.9965 24.2273 21.1835 24.6119 21.0297C24.9965 20.8758 25.1835 20.4394 25.0297 20.0548L23.637 20.6119ZM13.0855 21.7497C13.0855 21.3355 12.7497 20.9997 12.3355 20.9997C11.9213 20.9997 11.5855 21.3355 11.5855 21.7497H13.0855ZM12.3355 22.8192H11.5855V22.8193L12.3355 22.8192ZM11.9326 24.5439L12.4536 25.0833L12.454 25.083L11.9326 24.5439ZM11.4675 24.8625L11.8002 25.5347L11.8006 25.5345L11.4675 24.8625ZM6.55237 24.8501L6.24333 25.5335L6.24355 25.5336L6.55237 24.8501ZM6.04077 24.4837L6.61775 24.0046L6.61758 24.0044L6.04077 24.4837ZM5.67188 21.7279L4.92187 21.7277L4.92188 21.729L5.67188 21.7279ZM6.42277 17.0001C6.42285 16.5859 6.08712 16.2501 5.67291 16.25C5.2587 16.2499 4.92285 16.5856 4.92277 16.9999L6.42277 17.0001ZM26.4146 21.7497C26.4146 21.3355 26.0788 20.9997 25.6646 20.9997C25.2503 20.9997 24.9146 21.3355 24.9146 21.7497H26.4146ZM25.6646 22.8192L26.4146 22.8193V22.8192H25.6646ZM26.0675 24.5439L25.5461 25.083L25.5463 25.0832L26.0675 24.5439ZM26.5326 24.8625L26.1995 25.5345L26.1998 25.5347L26.5326 24.8625ZM31.4476 24.8501L31.7564 25.5336L31.7566 25.5335L31.4476 24.8501ZM31.9592 24.4837L31.3824 24.0044L31.382 24.0048L31.9592 24.4837ZM32.3281 21.7279L33.0781 21.729V21.7277L32.3281 21.7279ZM33.0772 16.9999C33.0771 16.5856 32.7413 16.2499 32.3271 16.25C31.9129 16.2501 31.5771 16.5859 31.5772 17.0001L33.0772 16.9999ZM29.4295 8.2885C29.0365 8.41948 28.8242 8.84422 28.9551 9.23718C29.0861 9.63014 29.5109 9.84251 29.9038 9.71152L29.4295 8.2885ZM31.9038 9.04486C32.2968 8.91387 32.5092 8.48913 32.3782 8.09617C32.2472 7.70322 31.8224 7.49085 31.4295 7.62183L31.9038 9.04486ZM8.09614 9.71152C8.4891 9.84251 8.91384 9.63014 9.04483 9.23718C9.17581 8.84422 8.96344 8.41948 8.57048 8.2885L8.09614 9.71152ZM6.57048 7.62183C6.17753 7.49085 5.75279 7.70322 5.6218 8.09617C5.49081 8.48913 5.70318 8.91387 6.09614 9.04486L6.57048 7.62183ZM6.49201 13.0194C6.59403 12.4628 7.08357 11.7544 8.09874 11.0659L7.25684 9.82448C6.0869 10.6179 5.22238 11.6263 5.01659 12.7489L6.49201 13.0194ZM8.09877 11.0659C9.85211 9.87676 11.854 9.86839 14.1685 9.7827L14.113 8.28373C11.9297 8.36457 9.43795 8.34521 7.25682 9.82449L8.09877 11.0659ZM14.1686 9.7827C14.897 9.7557 16.8846 9.74641 18.9983 9.75121L19.0017 8.25121C16.8978 8.24644 14.8773 8.2554 14.113 8.28373L14.1686 9.7827ZM19.0017 9.75121C21.1154 9.74641 23.1031 9.7557 23.8314 9.7827L23.887 8.28373C23.1228 8.2554 21.1022 8.24644 18.9983 8.25121L19.0017 9.75121ZM23.8315 9.7827C26.146 9.86839 28.1479 9.87676 29.9013 11.0659L30.7432 9.82448C28.562 8.34521 26.0703 8.36457 23.887 8.28373L23.8315 9.7827ZM29.9013 11.0659C30.9165 11.7544 31.4061 12.4628 31.508 13.0193L32.9835 12.7489C32.7777 11.6262 31.9131 10.6179 30.7432 9.82448L29.9013 11.0659ZM31.5081 13.0194C31.5592 13.2982 31.5899 14.0254 31.5821 14.9632C31.5746 15.8744 31.5321 16.9088 31.4579 17.7578L32.9522 17.8883C33.0305 16.9922 33.0743 15.9174 33.0821 14.9756C33.0896 14.0604 33.0645 13.1908 32.9835 12.7489L31.5081 13.0194ZM31.4579 17.7578C31.4183 18.2115 31.3801 18.5255 31.3408 18.7408C31.2971 18.9803 31.2657 19.0109 31.2916 18.971L32.55 19.7874C32.698 19.5592 32.7686 19.2718 32.8164 19.0103C32.8686 18.7246 32.9115 18.3547 32.9522 17.8884L31.4579 17.7578ZM31.2916 18.971C31.223 19.0768 31.02 19.2634 30.5639 19.4682C30.1258 19.6649 29.529 19.845 28.7831 19.9879L29.0655 21.4611C29.8842 21.3042 30.6013 21.0956 31.1783 20.8366C31.7373 20.5856 32.2502 20.2495 32.55 19.7874L31.2916 18.971ZM28.7831 19.9879C27.4041 20.2523 27.7178 20.25 19 20.25V21.75C27.6308 21.75 27.508 21.7597 29.0655 21.4611L28.7831 19.9879ZM19 20.25C10.2822 20.25 10.596 20.2523 9.217 19.9879L8.93459 21.4611C10.4921 21.7597 10.3692 21.75 19 21.75V20.25ZM9.21697 19.9879C8.4711 19.845 7.87421 19.6649 7.43615 19.4682C6.98009 19.2634 6.77702 19.0768 6.70839 18.971L5.45005 19.7874C5.74986 20.2495 6.26278 20.5856 6.82176 20.8366C7.39872 21.0956 8.1159 21.3042 8.93462 21.4611L9.21697 19.9879ZM6.7085 18.9711C6.73432 19.011 6.70298 18.9802 6.65924 18.7408C6.61991 18.5255 6.58174 18.2114 6.54211 17.7578L5.0478 17.8884C5.08855 18.3547 5.13147 18.7246 5.18366 19.0103C5.23144 19.2719 5.30203 19.5592 5.44994 19.7873L6.7085 18.9711ZM6.54211 17.7578C6.46795 16.9088 6.42539 15.8744 6.41789 14.9632C6.41016 14.0254 6.44088 13.2982 6.492 13.0194L5.0166 12.7489C4.93557 13.1908 4.9104 14.0604 4.91794 14.9756C4.92569 15.9174 4.96953 16.9922 5.0478 17.8883L6.54211 17.7578ZM9.72009 9.20969L11.4711 3.1965L10.0309 2.77713L8.27991 8.79031L9.72009 9.20969ZM11.4469 3.26658C11.5362 3.04444 11.6969 2.88417 11.9064 2.81295L11.4234 1.39281C10.7519 1.62119 10.2875 2.12913 10.0551 2.70705L11.4469 3.26658ZM11.9064 2.81294C16.0738 1.39569 21.9262 1.39569 26.0936 2.81294L26.5765 1.39282C22.096 -0.130939 15.904 -0.13094 11.4234 1.39282L11.9064 2.81294ZM26.0936 2.81295C26.303 2.88416 26.4638 3.04442 26.5533 3.26674L27.9449 2.70689C27.7124 2.12915 27.2482 1.6212 26.5765 1.39281L26.0936 2.81295ZM26.529 3.19649L28.2799 9.20968L29.7201 8.79032L27.9692 2.77714L26.529 3.19649ZM6.09614 13.7115L8.09614 14.3782L8.57048 12.9552L6.57048 12.2885L6.09614 13.7115ZM31.4295 12.2885L29.4295 12.9552L29.9038 14.3782L31.9038 13.7115L31.4295 12.2885ZM14.363 20.6119L14.6906 19.7929L13.2979 19.2359L12.9703 20.0548L14.363 20.6119ZM14.6906 19.793C14.9403 19.1688 15.1061 18.7571 15.2675 18.4543C15.4203 18.1679 15.5366 18.0439 15.6533 17.9649L14.8124 16.7228C14.4211 16.9877 14.1618 17.3401 13.944 17.7485C13.7349 18.1406 13.5353 18.6423 13.2979 19.2358L14.6906 19.793ZM15.6533 17.9649C15.77 17.8859 15.9283 17.8239 16.251 17.7885C16.592 17.751 17.0358 17.75 17.7082 17.75V16.25C17.0689 16.25 16.529 16.249 16.0872 16.2975C15.6271 16.348 15.2036 16.4579 14.8124 16.7228L15.6533 17.9649ZM17.7082 17.75H20.2919V16.25H17.7082V17.75ZM20.2919 17.75C20.9642 17.75 21.408 17.751 21.7491 17.7885C22.0717 17.8239 22.2301 17.8859 22.3467 17.9649L23.1877 16.7228C22.7965 16.4579 22.373 16.348 21.9128 16.2975C21.4711 16.249 20.9312 16.25 20.2919 16.25V17.75ZM22.3467 17.9649C22.4634 18.0439 22.5798 18.1679 22.7325 18.4543C22.8939 18.7571 23.0597 19.1688 23.3094 19.7929L24.7021 19.2359C24.4647 18.6423 24.2652 18.1407 24.0561 17.7485C23.8383 17.3401 23.5789 16.9877 23.1877 16.7228L22.3467 17.9649ZM23.3094 19.793L23.637 20.6119L25.0297 20.0548L24.7021 19.2358L23.3094 19.793ZM11.5855 21.7497V22.8192H13.0855V21.7497H11.5855ZM11.5855 22.8193C11.5855 23.4218 11.5691 23.6773 11.5357 23.8205C11.5236 23.8721 11.5133 23.8888 11.5086 23.8963C11.5001 23.9099 11.4789 23.9393 11.4111 24.0048L12.454 25.083C12.6979 24.8471 12.8971 24.5865 12.9964 24.1617C13.0764 23.8191 13.0855 23.3825 13.0855 22.8191L11.5855 22.8193ZM11.4115 24.0044C11.4117 24.0043 11.4109 24.005 11.4091 24.0066C11.4073 24.0082 11.4049 24.0104 11.4016 24.0132C11.3949 24.0189 11.3861 24.0262 11.3751 24.0348C11.3528 24.0523 11.3253 24.0725 11.2947 24.0934C11.2302 24.1376 11.1707 24.1726 11.1344 24.1906L11.8006 25.5345C12.0098 25.4308 12.2858 25.2453 12.4536 25.0833L11.4115 24.0044ZM11.1348 24.1904C11.1065 24.2044 11.0972 24.2083 11.0933 24.2099C11.0924 24.2102 11.0924 24.2103 11.089 24.2112C11.0758 24.2144 11.0273 24.2242 10.887 24.2321C10.599 24.2484 10.0863 24.25 9.0369 24.25V25.75C10.0608 25.75 10.6297 25.7491 10.9717 25.7297C11.1466 25.7198 11.3002 25.7036 11.4438 25.6686C11.6016 25.6302 11.715 25.5769 11.8002 25.5347L11.1348 24.1904ZM9.0369 24.25C7.9621 24.25 7.45366 24.249 7.16731 24.2318C7.03111 24.2236 6.98224 24.2133 6.96478 24.2089C6.95197 24.2056 6.9409 24.2027 6.86119 24.1667L6.24355 25.5336C6.32717 25.5714 6.44334 25.6241 6.59577 25.6628C6.74354 25.7003 6.89789 25.7183 7.077 25.7291C7.42127 25.7498 7.99175 25.75 9.0369 25.75V24.25ZM6.8614 24.1668C6.82526 24.1504 6.7649 24.116 6.70186 24.0709C6.67219 24.0496 6.64776 24.0301 6.6301 24.0147C6.61034 23.9975 6.60871 23.9937 6.61775 24.0046L5.46379 24.9629C5.57213 25.0934 5.71284 25.2076 5.82855 25.2904C5.95097 25.3781 6.09697 25.4673 6.24333 25.5335L6.8614 24.1668ZM6.61758 24.0044C6.53584 23.906 6.52031 23.8787 6.51203 23.8615C6.50623 23.8495 6.48742 23.8083 6.47002 23.6783C6.43012 23.3802 6.42354 22.8596 6.42187 21.7268L4.92188 21.729C4.92346 22.8081 4.92681 23.4554 4.98328 23.8773C5.01407 24.1073 5.06505 24.314 5.16064 24.5125C5.25374 24.7058 5.37118 24.8515 5.46395 24.9631L6.61758 24.0044ZM6.42188 21.728L6.42277 17.0001L4.92277 16.9999L4.92188 21.7277L6.42188 21.728ZM24.9146 21.7497V22.8192H26.4146V21.7497H24.9146ZM24.9146 22.8191C24.9145 23.3825 24.9236 23.8191 25.0036 24.1617C25.1029 24.5865 25.3022 24.8471 25.5461 25.083L26.5889 24.0047C26.5211 23.9392 26.4999 23.9099 26.4914 23.8963C26.4867 23.8887 26.4764 23.8721 26.4643 23.8204C26.4309 23.6773 26.4145 23.4218 26.4146 22.8193L24.9146 22.8191ZM25.5463 25.0832C25.7141 25.2454 25.9903 25.4308 26.1995 25.5345L26.8656 24.1905C26.8293 24.1726 26.7697 24.1376 26.7053 24.0934C26.6747 24.0725 26.6472 24.0523 26.625 24.0349C26.614 24.0262 26.6052 24.019 26.5985 24.0133C26.5917 24.0074 26.5886 24.0045 26.5887 24.0045L25.5463 25.0832ZM26.1998 25.5347C26.285 25.5769 26.3984 25.6302 26.5562 25.6686C26.6998 25.7036 26.8535 25.7198 27.0283 25.7297C27.3703 25.7491 27.9392 25.75 28.9631 25.75V24.25C27.9137 24.25 27.401 24.2484 27.113 24.2321C26.9727 24.2242 26.9242 24.2144 26.911 24.2112C26.9076 24.2103 26.9077 24.2102 26.9067 24.2099C26.9029 24.2083 26.8935 24.2044 26.8653 24.1904L26.1998 25.5347ZM28.9631 25.75C30.0083 25.75 30.5787 25.7498 30.923 25.7291C31.1021 25.7183 31.2565 25.7003 31.4042 25.6628C31.5567 25.6241 31.6728 25.5714 31.7564 25.5336L31.1388 24.1667C31.0591 24.2027 31.048 24.2056 31.0352 24.2089C31.0178 24.2133 30.9689 24.2236 30.8327 24.2318C30.5464 24.249 30.0379 24.25 28.9631 24.25V25.75ZM31.7566 25.5335C31.903 25.4673 32.049 25.3781 32.1714 25.2904C32.2872 25.2076 32.428 25.0933 32.5364 24.9627L31.382 24.0048C31.3912 23.9938 31.3896 23.9975 31.3699 24.0147C31.3523 24.0301 31.3279 24.0496 31.2982 24.0708C31.2352 24.116 31.1748 24.1504 31.1386 24.1667L31.7566 25.5335ZM32.536 24.9631C32.6288 24.8515 32.7463 24.7058 32.8394 24.5125C32.9349 24.314 32.9859 24.1073 33.0167 23.8773C33.0732 23.4554 33.0765 22.8081 33.0781 21.729L31.5781 21.7267C31.5764 22.8596 31.5699 23.3802 31.53 23.6783C31.5126 23.8083 31.4938 23.8495 31.488 23.8615C31.4797 23.8787 31.4642 23.906 31.3824 24.0044L32.536 24.9631ZM33.0781 21.7277L33.0772 16.9999L31.5772 17.0001L31.5781 21.728L33.0781 21.7277ZM29.9038 9.71152L31.9038 9.04486L31.4295 7.62183L29.4295 8.2885L29.9038 9.71152ZM8.57048 8.2885L6.57048 7.62183L6.09614 9.04486L8.09614 9.71152L8.57048 8.2885Z" fill="white"/>
</g>
<defs>
<filter id="filter0_d_21_66" x="0.916687" y="0.25" width="36.1667" height="33.5" filterUnits="userSpaceOnUse" color-interpolation-filters="sRGB">
<feFlood flood-opacity="0" result="BackgroundImageFix"/>
<feColorMatrix in="SourceAlpha" type="matrix" values="0 0 0 0 0 0 0 0 0 0 0 0 0 0 0 0 0 0 127 0" result="hardAlpha"/>
<feOffset dy="4"/>
<feGaussianBlur stdDeviation="2"/>
<feComposite in2="hardAlpha" operator="out"/>
<feColorMatrix type="matrix" values="0 0 0 0 0 0 0 0 0 0 0 0 0 0 0 0 0 0 0.25 0"/>
<feBlend mode="normal" in2="BackgroundImageFix" result="effect1_dropShadow_21_66"/>
<feBlend mode="normal" in="SourceGraphic" in2="effect1_dropShadow_21_66" result="shape"/>
</filter>
</defs>
</svg>
