<svg width="14" height="14" viewBox="0 0 14 14" fill="none" xmlns="http://www.w3.org/2000/svg">
<path d="M0.0297852 3.89384H3.12108V14H0.0297852V3.89384ZM11.8897 4.51805C12.504 4.85492 13.0093 5.36518 13.4056 6.04883C13.8019 6.73248 14.0001 7.431 14.0001 8.14437V14H10.879V8.14437C10.879 7.98585 10.8196 7.8075 10.7007 7.60934C10.5818 7.41118 10.4728 7.28238 10.3737 7.22293C10.2152 7.12385 9.99723 7.07431 9.71981 7.07431C9.44238 7.07431 9.22441 7.11394 9.06588 7.19321L7.78775 7.81741V14H4.66673V3.89384H7.78775V4.36943C8.40204 4.092 9.0956 3.9632 9.86843 3.98301C10.6412 4.00283 11.315 4.18117 11.8897 4.51805ZM1.57543 0C2.01138 0 2.37798 0.14862 2.67522 0.44586C2.97246 0.7431 3.12108 1.1097 3.12108 1.54565C3.12108 1.9816 2.97246 2.35315 2.67522 2.6603C2.37798 2.96745 2.01138 3.12102 1.57543 3.12102C1.13948 3.12102 0.772885 2.96745 0.475645 2.6603C0.178405 2.35315 0.0297852 1.9816 0.0297852 1.54565C0.0297852 1.1097 0.178405 0.7431 0.475645 0.44586C0.772885 0.14862 1.13948 0 1.57543 0Z" fill="white"/>
</svg>
