<svg width="15" height="14" viewBox="0 0 15 14" fill="none" xmlns="http://www.w3.org/2000/svg">
<path d="M12.6677 5.61259H11.5285C11.6211 5.94601 11.6674 6.27943 11.6674 6.61285C11.6674 7.16855 11.5609 7.69647 11.3479 8.1966C11.1348 8.69673 10.8431 9.13203 10.4726 9.5025C10.1022 9.87296 9.66687 10.1647 9.16674 10.3777C8.66661 10.5907 8.13869 10.6973 7.58299 10.6973C7.02729 10.6973 6.504 10.5907 6.01313 10.3777C5.52226 10.1647 5.09159 9.87296 4.72112 9.5025C4.35066 9.13203 4.05891 8.69673 3.8459 8.1966C3.63288 7.69647 3.52637 7.16855 3.52637 6.61285C3.52637 6.27943 3.57268 5.94601 3.66529 5.61259H2.49832V11.1974C2.49832 11.3456 2.54926 11.466 2.65114 11.5586C2.75302 11.6512 2.87805 11.6975 3.02624 11.6975H12.1675C12.3157 11.6975 12.4361 11.6512 12.5287 11.5586C12.6213 11.466 12.6677 11.3456 12.6677 11.1974V5.61259ZM12.6677 2.0561C12.6677 1.90791 12.6213 1.78288 12.5287 1.681C12.4361 1.57912 12.3157 1.52818 12.1675 1.52818H10.6393C10.4912 1.52818 10.3708 1.57912 10.2781 1.681C10.1855 1.78288 10.1392 1.90791 10.1392 2.0561V3.55649C10.1392 3.70468 10.1855 3.82971 10.2781 3.93159C10.3708 4.03347 10.4912 4.08441 10.6393 4.08441H12.1675C12.3157 4.08441 12.4361 4.03347 12.5287 3.93159C12.6213 3.82971 12.6677 3.70468 12.6677 3.55649V2.0561ZM7.58299 4.08441C6.8791 4.08441 6.28172 4.32984 5.79085 4.82071C5.29998 5.31158 5.05455 5.90896 5.05455 6.61285C5.05455 6.96479 5.11938 7.29821 5.24904 7.61311C5.37871 7.92801 5.55931 8.20123 5.79085 8.43277C6.02239 8.66431 6.29098 8.84492 6.59662 8.97458C6.90225 9.10424 7.23104 9.16908 7.58299 9.16908C7.93493 9.16908 8.26835 9.10424 8.58325 8.97458C8.89815 8.84492 9.17137 8.66431 9.40291 8.43277C9.63445 8.20123 9.81506 7.92801 9.94472 7.61311C10.0744 7.29821 10.1392 6.96479 10.1392 6.61285C10.1392 6.2609 10.0744 5.93211 9.94472 5.62648C9.81506 5.32084 9.63445 5.05225 9.40291 4.82071C9.17137 4.58917 8.89815 4.40857 8.58325 4.2789C8.26835 4.14924 7.93493 4.08441 7.58299 4.08441ZM2.49832 13.2257C2.07228 13.2257 1.71571 13.0775 1.42859 12.7811C1.14148 12.4848 0.997925 12.1236 0.997925 11.6975V1.52818C0.997925 1.10214 1.14148 0.740935 1.42859 0.444561C1.71571 0.148187 2.07228 0 2.49832 0H12.6677C13.0937 0 13.4549 0.148187 13.7513 0.444561C14.0476 0.740935 14.1958 1.10214 14.1958 1.52818V11.6975C14.1958 12.1236 14.0476 12.4848 13.7513 12.7811C13.4549 13.0775 13.0937 13.2257 12.6677 13.2257H2.49832Z" fill="white"/>
</svg>
