<svg width="321" height="523" viewBox="0 0 321 523" fill="none" xmlns="http://www.w3.org/2000/svg">
<path d="M105.244 367.355V360.892C105.41 330.897 108.227 307.033 113.696 289.301C119.33 271.569 127.285 257.317 137.56 246.545C147.834 235.608 160.346 225.582 175.095 216.467C185.204 210.17 194.236 203.293 202.19 195.835C210.311 188.212 216.691 179.76 221.331 170.48C225.971 161.034 228.291 150.511 228.291 138.91C228.291 125.819 225.225 114.467 219.094 104.855C212.962 95.2434 204.676 87.786 194.236 82.483C183.961 77.1799 172.444 74.5284 159.683 74.5284C147.917 74.5284 136.731 77.097 126.125 82.2344C115.685 87.206 106.984 94.8291 100.024 105.104C93.2296 115.213 89.4181 128.056 88.5895 143.634H0.0951707C0.92377 112.147 8.54688 85.7973 22.9645 64.5852C37.5478 43.3731 56.7713 27.464 80.6349 16.8579C104.664 6.25187 131.179 0.948845 160.18 0.948845C191.833 0.948845 219.674 6.50046 243.703 17.6037C267.898 28.7069 286.707 44.5331 300.131 65.0824C313.72 85.4659 320.514 109.661 320.514 137.668C320.514 156.56 317.448 173.463 311.317 188.378C305.351 203.293 296.816 216.55 285.713 228.151C274.61 239.751 261.435 250.108 246.189 259.223C232.766 267.509 221.745 276.126 213.128 285.075C204.676 294.024 198.379 304.547 194.236 316.645C190.259 328.577 188.187 343.326 188.021 360.892V367.355H105.244ZM148.497 522.469C133.582 522.469 120.739 517.166 109.967 506.56C99.1956 495.954 93.8097 483.027 93.8097 467.781C93.8097 452.866 99.1956 440.106 109.967 429.5C120.739 418.894 133.582 413.591 148.497 413.591C163.246 413.591 176.007 418.894 186.778 429.5C197.716 440.106 203.185 452.866 203.185 467.781C203.185 477.89 200.616 487.088 195.479 495.374C190.507 503.66 183.878 510.288 175.592 515.26C167.472 520.066 158.44 522.469 148.497 522.469Z" fill="#437DD5" fill-opacity="0.53"/>
</svg>
