<svg width="64" height="64" viewBox="0 0 64 64" fill="none" xmlns="http://www.w3.org/2000/svg">
<path d="M8.75 30.0687H9.5C9.5 29.801 9.35728 29.5536 9.12554 29.4195L8.75 30.0687ZM9.22194 55.1967L9.91487 54.9098L9.91484 54.9097L9.22194 55.1967ZM12.3819 59.0243L11.8515 59.5546L11.8515 59.5546L12.3819 59.0243ZM16.5 63.1423L15.9697 63.6727C16.2626 63.9656 16.7374 63.9656 17.0303 63.6727L16.5 63.1423ZM23.0354 56.6069L22.5051 56.0765L22.5051 56.0766L23.0354 56.6069ZM23.6126 55.9913L24.2082 56.4471L24.2084 56.4468L23.6126 55.9913ZM24.2228 54.5181L23.4794 54.4189L23.4794 54.419L24.2228 54.5181ZM24.2317 52.9895L23.4861 53.0708L23.4861 53.0708L24.2317 52.9895ZM23.8171 51.7455L23.1718 52.1277L23.1718 52.1277L23.8171 51.7455ZM23.4206 51.1866L22.8206 51.6366L22.8207 51.6367L23.4206 51.1866ZM19.6 46.0923L19 45.6423C18.8 45.909 18.8 46.2757 19 46.5423L19.6 46.0923ZM21.77 43.1991L22.37 43.6491L22.37 43.6491L21.77 43.1991ZM23.9318 39.7863L24.6434 40.0235L24.6434 40.0235L23.9318 39.7863ZM24.25 30.0687L23.8745 29.4195C23.6427 29.5536 23.5 29.801 23.5 30.0687H24.25ZM16.5 15.8923C16.0858 15.8923 15.75 16.2281 15.75 16.6423C15.75 17.0565 16.0858 17.3923 16.5 17.3923V15.8923ZM16.5278 17.3923C16.942 17.3923 17.2778 17.0565 17.2778 16.6423C17.2778 16.2281 16.942 15.8923 16.5278 15.8923V17.3923ZM35.1 37.5923C34.6858 37.5923 34.35 37.9281 34.35 38.3423C34.35 38.7565 34.6858 39.0923 35.1 39.0923V37.5923ZM59.1727 38.8142L59.4598 38.1213L59.4596 38.1212L59.1727 38.8142ZM62.5282 42.1696L63.2211 41.8827L63.2211 41.8825L62.5282 42.1696ZM62.5282 53.1151L63.2211 53.4021L63.2211 53.402L62.5282 53.1151ZM59.1727 56.4705L59.4596 57.1635L59.4598 57.1634L59.1727 56.4705ZM35.1 56.1923C34.6858 56.1923 34.35 56.5281 34.35 56.9423C34.35 57.3566 34.6858 57.6923 35.1 57.6923V56.1923ZM41.3 9.69233C40.8858 9.69233 40.55 10.0281 40.55 10.4423C40.55 10.8565 40.8858 11.1923 41.3 11.1923V9.69233ZM59.1727 10.9143L59.4598 10.2214L59.4597 10.2214L59.1727 10.9143ZM62.5282 14.2697L63.2211 13.9827L63.2211 13.9827L62.5282 14.2697ZM62.5282 25.215L63.2211 25.502L63.2211 25.5019L62.5282 25.215ZM59.1727 28.5705L59.4596 29.2635L59.4598 29.2634L59.1727 28.5705ZM41.3 28.2923C40.8858 28.2923 40.55 28.6281 40.55 29.0423C40.55 29.4566 40.8858 29.7923 41.3 29.7923V28.2923ZM16.5 0.392334C7.52538 0.392334 0.25 7.66772 0.25 16.6423H1.75C1.75 8.49615 8.35381 1.89233 16.5 1.89233V0.392334ZM0.25 16.6423C0.25 22.6581 3.51928 27.9095 8.37446 30.718L9.12554 29.4195C4.71482 26.8681 1.75 22.101 1.75 16.6423H0.25ZM8 30.0687V50.2559H9.5V30.0687H8ZM8 50.2559C8 52.729 7.98672 54.1746 8.52904 55.4838L9.91484 54.9097C9.51328 53.9403 9.5 52.8514 9.5 50.2559H8ZM8.52902 55.4837C9.07132 56.7932 10.1028 57.8058 11.8515 59.5546L12.9122 58.494C11.0769 56.6586 10.3164 55.8794 9.91487 54.9098L8.52902 55.4837ZM11.8515 59.5546L15.9697 63.6727L17.0303 62.612L12.9122 58.494L11.8515 59.5546ZM17.0303 63.6727L23.5657 57.1372L22.5051 56.0766L15.9697 62.612L17.0303 63.6727ZM23.5656 57.1373C23.8533 56.8497 24.046 56.659 24.2082 56.4471L23.017 55.5355C22.9292 55.6502 22.8203 55.7614 22.5051 56.0765L23.5656 57.1373ZM24.2084 56.4468C24.6162 55.9136 24.8774 55.2829 24.9662 54.6173L23.4794 54.419C23.4252 54.8254 23.2657 55.2102 23.0169 55.5357L24.2084 56.4468ZM24.9662 54.6173C25.0015 54.3525 25 54.081 25 53.6746H23.5C23.5 54.1208 23.4985 54.2758 23.4794 54.4189L24.9662 54.6173ZM25 53.6746C25 53.3455 25.001 53.1258 24.9773 52.9082L23.4861 53.0708C23.499 53.1887 23.5 53.3137 23.5 53.6746H25ZM24.9773 52.9082C24.9178 52.3623 24.7422 51.8356 24.4624 51.3633L23.1718 52.1277C23.3426 52.4161 23.4498 52.7376 23.4861 53.0708L24.9773 52.9082ZM24.4624 51.3633C24.3508 51.1749 24.218 50.9996 24.0205 50.7364L22.8207 51.6367C23.0373 51.9253 23.1115 52.0259 23.1718 52.1277L24.4624 51.3633ZM24.0206 50.7366L20.2 45.6423L19 46.5423L22.8206 51.6366L24.0206 50.7366ZM20.2 46.5423L22.37 43.6491L21.17 42.7491L19 45.6423L20.2 46.5423ZM22.37 43.6491C23.5701 42.0489 24.2778 41.1201 24.6434 40.0235L23.2203 39.5491C22.9495 40.3616 22.4282 41.0714 21.17 42.7491L22.37 43.6491ZM24.6434 40.0235C25.0089 38.9269 25 37.7592 25 35.7591H23.5C23.5 37.856 23.4911 38.7367 23.2203 39.5492L24.6434 40.0235ZM25 35.7591V30.0687H23.5V35.7591H25ZM24.6255 30.718C29.4807 27.9095 32.75 22.6581 32.75 16.6423H31.25C31.25 22.101 28.2852 26.8681 23.8745 29.4195L24.6255 30.718ZM32.75 16.6423C32.75 7.66772 25.4746 0.392334 16.5 0.392334V1.89233C24.6462 1.89233 31.25 8.49615 31.25 16.6423H32.75ZM16.5 17.3923H16.5278V15.8923H16.5V17.3923ZM35.1 39.0923H53.7V37.5923H35.1V39.0923ZM53.7 39.0923C55.1547 39.0923 56.2081 39.0927 57.0413 39.1496C57.8678 39.2059 58.4226 39.3153 58.8858 39.5071L59.4596 38.1212C58.7833 37.8412 58.0462 37.7146 57.1434 37.6531C56.2473 37.5919 55.1342 37.5923 53.7 37.5923V39.0923ZM58.8857 39.507C60.2209 40.0602 61.2821 41.1214 61.8353 42.4567L63.2211 41.8825C62.5156 40.1798 61.1625 38.8267 59.4598 38.1213L58.8857 39.507ZM61.8352 42.4565C62.027 42.9197 62.1364 43.4746 62.1928 44.301C62.2496 45.1342 62.25 46.1876 62.25 47.6423H63.75C63.75 46.2082 63.7504 45.095 63.6893 44.1989C63.6277 43.2961 63.5012 42.559 63.2211 41.8827L61.8352 42.4565ZM62.25 47.6423C62.25 49.097 62.2496 50.1505 62.1928 50.9837C62.1364 51.8101 62.027 52.365 61.8352 52.8282L63.2211 53.402C63.5012 52.7256 63.6277 51.9886 63.6893 51.0857C63.7504 50.1897 63.75 49.0765 63.75 47.6423H62.25ZM61.8353 52.828C61.2821 54.1633 60.2209 55.2244 58.8857 55.7776L59.4598 57.1634C61.1625 56.458 62.5156 55.1049 63.2211 53.4021L61.8353 52.828ZM58.8858 55.7776C58.4226 55.9694 57.8678 56.0787 57.0413 56.1351C56.2081 56.1919 55.1547 56.1923 53.7 56.1923V57.6923C55.1342 57.6923 56.2473 57.6927 57.1434 57.6316C58.0462 57.57 58.7833 57.4435 59.4596 57.1635L58.8858 55.7776ZM53.7 56.1923H35.1V57.6923H53.7V56.1923ZM41.3 11.1923H53.7V9.69233H41.3V11.1923ZM53.7 11.1923C55.1547 11.1923 56.2081 11.1927 57.0413 11.2496C57.8677 11.306 58.4226 11.4154 58.8858 11.6072L59.4597 10.2214C58.7833 9.94124 58.0462 9.81467 57.1434 9.75307C56.2473 9.69193 55.1342 9.69233 53.7 9.69233V11.1923ZM58.8857 11.6072C60.221 12.1603 61.2821 13.2213 61.8353 14.5567L63.2211 13.9827C62.5156 12.2797 61.1625 10.9268 59.4598 10.2214L58.8857 11.6072ZM61.8352 14.5566C62.027 15.0197 62.1364 15.5746 62.1928 16.401C62.2496 17.2342 62.25 18.2877 62.25 19.7423H63.75C63.75 18.3082 63.7504 17.195 63.6893 16.2989C63.6277 15.3961 63.5012 14.659 63.2211 13.9827L61.8352 14.5566ZM62.25 19.7423C62.25 21.197 62.2496 22.2505 62.1928 23.0837C62.1364 23.9101 62.027 24.4649 61.8352 24.928L63.2211 25.5019C63.5012 24.8256 63.6277 24.0885 63.6893 23.1857C63.7504 22.2897 63.75 21.1765 63.75 19.7423H62.25ZM61.8353 24.9279C61.2821 26.2633 60.2209 27.3244 58.8857 27.8776L59.4598 29.2634C61.1625 28.558 62.5157 27.2049 63.2211 25.502L61.8353 24.9279ZM58.8858 27.8776C58.4226 28.0693 57.8678 28.1787 57.0413 28.2351C56.2081 28.2919 55.1547 28.2923 53.7 28.2923V29.7923C55.1342 29.7923 56.2473 29.7927 57.1434 29.7316C58.0462 29.67 58.7833 29.5435 59.4596 29.2635L58.8858 27.8776ZM53.7 28.2923H41.3V29.7923H53.7V28.2923Z" fill="#141B34"/>
</svg>
