<svg width="64" height="65" viewBox="0 0 64 65" fill="none" xmlns="http://www.w3.org/2000/svg">
<path d="M53.8471 28.1372C54.3531 27.9157 54.5837 27.326 54.3622 26.8201C54.1407 26.3141 53.551 26.0835 53.0451 26.305L53.8471 28.1372ZM41.7945 28.1644L41.4408 29.0998L41.4408 29.0998L41.7945 28.1644ZM22.2055 28.1644L22.5592 29.0998L22.5592 29.0998L22.2055 28.1644ZM10.9548 26.305C10.4488 26.0835 9.85916 26.3141 9.63769 26.8201C9.41622 27.326 9.64683 27.9157 10.1528 28.1372L10.9548 26.305ZM53.887 37.0146C54.4295 36.9113 54.7856 36.3878 54.6824 35.8453C54.5791 35.3027 54.0556 34.9466 53.513 35.0498L53.887 37.0146ZM35.724 53.8219C35.7127 54.3741 36.1512 54.8309 36.7034 54.8421C37.2556 54.8534 37.7123 54.4149 37.7236 53.8627L35.724 53.8219ZM26.2764 53.8627C26.2877 54.4149 26.7445 54.8534 27.2966 54.8421C27.8488 54.8309 28.2873 54.3741 28.276 53.8219L26.2764 53.8627ZM10.487 35.0498C9.94441 34.9466 9.42089 35.3027 9.31763 35.8453C9.21438 36.3878 9.5705 36.9113 10.113 37.0146L10.487 35.0498ZM32.0248 36.2423C32.5771 36.2423 33.0248 35.7946 33.0248 35.2423C33.0248 34.6901 32.5771 34.2423 32.0248 34.2423V36.2423ZM31.9969 34.2423C31.4446 34.2423 30.9969 34.6901 30.9969 35.2423C30.9969 35.7946 31.4446 36.2423 31.9969 36.2423V34.2423ZM62 32.1423C62 48.7107 48.5684 62.1423 32 62.1423V64.1423C49.673 64.1423 64 49.8153 64 32.1423H62ZM32 62.1423C15.4315 62.1423 2 48.7107 2 32.1423H0C0 49.8153 14.3269 64.1423 32 64.1423V62.1423ZM2 32.1423C2 15.5738 15.4314 2.14233 32 2.14233V0.142334C14.3269 0.142334 0 14.4692 0 32.1423H2ZM32 2.14233C48.5684 2.14233 62 15.5738 62 32.1423H64C64 14.4692 49.673 0.142334 32 0.142334V2.14233ZM53.0451 26.305C50.1246 27.5835 45.8901 28.6439 42.1481 27.229L41.4408 29.0998C45.9175 30.7924 50.7598 29.4887 53.8471 28.1372L53.0451 26.305ZM42.1481 27.229C36.1472 24.96 33.0051 24.9423 32 24.9423V26.9423C32.7886 26.9423 35.6883 26.9247 41.4408 29.0998L42.1481 27.229ZM32 24.9423C30.9949 24.9423 27.8528 24.96 21.8518 27.229L22.5592 29.0998C28.3117 26.9247 31.2114 26.9423 32 26.9423V24.9423ZM21.8519 27.229C18.1099 28.6439 13.8755 27.5835 10.9548 26.305L10.1528 28.1372C13.2402 29.4887 18.0826 30.7924 22.5592 29.0998L21.8519 27.229ZM53.513 35.0498C50.1196 35.6957 45.7562 36.9945 42.1919 39.8384C38.5848 42.7166 35.8605 47.1292 35.724 53.8219L37.7236 53.8627C37.8477 47.7773 40.2862 43.9177 43.4393 41.4018C46.6353 38.8517 50.6297 37.6345 53.887 37.0146L53.513 35.0498ZM28.276 53.8219C28.1395 47.1292 25.4152 42.7166 21.8081 39.8384C18.2439 36.9945 13.8804 35.6957 10.487 35.0498L10.113 37.0146C13.3704 37.6345 17.3647 38.8517 20.5607 41.4018C23.7138 43.9177 26.1523 47.7773 26.2764 53.8627L28.276 53.8219ZM32.0248 34.2423H31.9969V36.2423H32.0248V34.2423Z" fill="#141B34"/>
</svg>
