<svg width="64" height="57" viewBox="0 0 64 57" fill="none" xmlns="http://www.w3.org/2000/svg">
<path d="M27.8253 32.1593C28.0802 31.8327 28.022 31.3614 27.6955 31.1066C27.3689 30.8518 26.8976 30.9099 26.6428 31.2365L27.8253 32.1593ZM22.9126 37.2358L23.5038 37.6972L23.5039 37.6972L22.9126 37.2358ZM23.5366 38.8412L23.6902 38.1071H23.6902L23.5366 38.8412ZM28.0633 39.7881L27.9097 40.5222L27.9098 40.5222L28.0633 39.7881ZM28.6126 41.479L29.1495 42.0027L29.1495 42.0027L28.6126 41.479ZM22.7141 46.452C22.4248 46.7485 22.4307 47.2233 22.7273 47.5126C23.0238 47.8018 23.4986 47.7959 23.7878 47.4994L22.7141 46.452ZM7.2 21.7812C6.78579 21.7812 6.45 22.117 6.45 22.5312C6.45 22.9454 6.78579 23.2812 7.2 23.2812V21.7812ZM44.4 23.2812C44.8142 23.2812 45.15 22.9454 45.15 22.5312C45.15 22.117 44.8142 21.7812 44.4 21.7812V23.2812ZM7.2 56.1423H6.45V56.8923H7.2V56.1423ZM44.4 56.1423V56.8923H45.15V56.1423H44.4ZM1 55.3923C0.585786 55.3923 0.25 55.7281 0.25 56.1423C0.25 56.5565 0.585786 56.8923 1 56.8923V55.3923ZM50.6 56.8923C51.0142 56.8923 51.35 56.5565 51.35 56.1423C51.35 55.7281 51.0142 55.3923 50.6 55.3923V56.8923ZM44.4 34.0034C43.9858 34.0034 43.65 34.3392 43.65 34.7534C43.65 35.1677 43.9858 35.5034 44.4 35.5034V34.0034ZM51.4023 34.8576L51.2105 35.5827L51.2109 35.5828L51.4023 34.8576ZM53.5943 37.0182L52.8705 37.2148L52.8706 37.2152L53.5943 37.0182ZM60.9174 16.3966L61.5387 15.9764L61.5387 15.9764L60.9174 16.3966ZM58.5196 12.8514L57.8983 13.2715L57.8983 13.2716L58.5196 12.8514ZM53.7 9.559C53.2858 9.559 52.95 9.89479 52.95 10.309C52.95 10.7232 53.2858 11.059 53.7 11.059V9.559ZM26.6428 31.2365L22.3213 36.7744L23.5039 37.6972L27.8253 32.1593L26.6428 31.2365ZM22.3213 36.7743C21.4938 37.8347 22.1212 39.3113 23.383 39.5753L23.6902 38.1071C23.5672 38.0813 23.4967 38.0071 23.4668 37.9301C23.4376 37.8548 23.444 37.7739 23.5038 37.6972L22.3213 36.7743ZM23.383 39.5753L27.9097 40.5222L28.2169 39.054L23.6902 38.1071L23.383 39.5753ZM27.9098 40.5222C28.0412 40.5497 28.1112 40.6301 28.1378 40.7119C28.1637 40.7917 28.1517 40.8775 28.0757 40.9554L29.1495 42.0027C30.1519 40.975 29.5644 39.3357 28.2168 39.054L27.9098 40.5222ZM28.0757 40.9553L22.7141 46.452L23.7878 47.4994L29.1495 42.0027L28.0757 40.9553ZM7.2 23.2812H44.4V21.7812H7.2V23.2812ZM7.95 56.1423V19.4757H6.45V56.1423H7.95ZM7.95 19.4757C7.95 15.133 7.95164 11.9525 8.28361 9.5187C8.61248 7.10765 9.25292 5.54164 10.4504 4.36134L9.39742 3.29304C7.87098 4.7976 7.14947 6.73461 6.79737 9.31598C6.44836 11.8746 6.45 15.176 6.45 19.4757H7.95ZM10.4504 4.36134C11.6494 3.17955 13.2426 2.54629 15.6939 2.22144C18.1657 1.89388 21.395 1.89233 25.8 1.89233V0.392334C21.4368 0.392334 18.0901 0.390786 15.4968 0.734441C12.8831 1.08081 10.9224 1.78997 9.39742 3.29304L10.4504 4.36134ZM25.8 1.89233C30.2049 1.89233 33.4342 1.89388 35.906 2.22144C38.3573 2.54629 39.9505 3.17955 41.1495 4.36134L42.2025 3.29304C40.6775 1.78997 38.7168 1.08081 36.1031 0.734441C33.5098 0.390786 30.1631 0.392334 25.8 0.392334V1.89233ZM41.1495 4.36134C42.347 5.54165 42.9875 7.10766 43.3164 9.51871C43.6484 11.9525 43.65 15.133 43.65 19.4757H45.15C45.15 15.176 45.1516 11.8746 44.8026 9.31598C44.4505 6.7346 43.729 4.79759 42.2025 3.29304L41.1495 4.36134ZM43.65 19.4757V56.1423H45.15V19.4757H43.65ZM44.4 55.3923H7.2V56.8923H44.4V55.3923ZM1 56.8923H50.6V55.3923H1V56.8923ZM44.4 35.5034H49.5668V34.0034H44.4V35.5034ZM49.5668 35.5034C50.5755 35.5034 50.9346 35.5097 51.2105 35.5827L51.594 34.1326C51.082 33.9972 50.48 34.0034 49.5668 34.0034V35.5034ZM51.2109 35.5828C52.0256 35.7978 52.6554 36.423 52.8705 37.2148L54.3181 36.8216C53.9603 35.5045 52.9186 34.4821 51.5937 34.1325L51.2109 35.5828ZM52.8706 37.2152C52.9434 37.4825 52.95 37.8312 52.95 38.8274H54.45C54.45 37.9292 54.4566 37.3307 54.318 36.8212L52.8706 37.2152ZM52.95 38.8274V42.3923H54.45V38.8274H52.95ZM52.95 42.3923C52.95 45.3479 55.378 47.7257 58.35 47.7257V46.2257C56.1859 46.2257 54.45 44.4992 54.45 42.3923H52.95ZM58.35 47.7257C61.322 47.7257 63.75 45.3479 63.75 42.3923H62.25C62.25 44.4992 60.5141 46.2257 58.35 46.2257V47.7257ZM63.75 42.3923V23.1763H62.25V42.3923H63.75ZM63.75 23.1763C63.75 21.3838 63.7576 20.3332 63.451 19.3349L62.0171 19.7752C62.2424 20.5089 62.25 21.2952 62.25 23.1763H63.75ZM63.451 19.3349C63.1445 18.337 62.5472 17.4678 61.5387 15.9764L60.2961 16.8167C61.3547 18.382 61.7916 19.0411 62.0171 19.7752L63.451 19.3349ZM61.5387 15.9764L59.1408 12.4312L57.8983 13.2716L60.2962 16.8168L61.5387 15.9764ZM59.1408 12.4312C57.9255 10.6341 55.8825 9.559 53.7 9.559V11.059C55.3906 11.059 56.9653 11.892 57.8983 13.2715L59.1408 12.4312Z" fill="#141B34"/>
</svg>
