<svg width="64" height="64" viewBox="0 0 64 64" fill="none" xmlns="http://www.w3.org/2000/svg">
<path d="M20.1303 33.162C19.8374 32.8691 19.3626 32.8691 19.0697 33.162C18.7768 33.4549 18.7768 33.9298 19.0697 34.2227L20.1303 33.162ZM27.35 41.4423L26.8197 41.9727C26.9643 42.1173 27.1618 42.1966 27.3663 42.1922C27.5708 42.1877 27.7646 42.0999 27.9029 41.9491L27.35 41.4423ZM44.9529 23.3491C45.2328 23.0438 45.2121 22.5694 44.9068 22.2895C44.6015 22.0096 44.127 22.0302 43.8471 22.3355L44.9529 23.3491ZM63.75 32.1423C63.75 14.6073 49.5349 0.392334 32 0.392334V1.89233C48.7065 1.89233 62.25 15.4357 62.25 32.1423H63.75ZM32 0.392334C14.465 0.392334 0.25 14.6073 0.25 32.1423H1.75C1.75 15.4357 15.2934 1.89233 32 1.89233V0.392334ZM0.25 32.1423C0.25 49.6772 14.4649 63.8923 32 63.8923V62.3923C15.2934 62.3923 1.75 48.8488 1.75 32.1423H0.25ZM32 63.8923C49.5349 63.8923 63.75 49.6772 63.75 32.1423H62.25C62.25 48.8488 48.7065 62.3923 32 62.3923V63.8923ZM19.0697 34.2227L26.8197 41.9727L27.8803 40.912L20.1303 33.162L19.0697 34.2227ZM27.9029 41.9491L44.9529 23.3491L43.8471 22.3355L26.7971 40.9355L27.9029 41.9491Z" fill="#141B34"/>
</svg>
