<svg width="61" height="61" viewBox="0 0 61 61" fill="none" xmlns="http://www.w3.org/2000/svg">
<path d="M35.1579 33.7476L46.0263 21.3265M11.8684 30.6423C11.8684 20.3524 20.2101 12.0108 30.5 12.0108C33.8937 12.0108 37.0754 12.9181 39.8158 14.5033M36.7105 39.9581C36.7105 43.3882 33.9301 46.1687 30.5 46.1687C27.0699 46.1687 24.2895 43.3882 24.2895 39.9581C24.2895 36.5281 27.0699 33.7476 30.5 33.7476C33.9301 33.7476 36.7105 36.5281 36.7105 39.9581ZM1 30.6423C1 16.7359 1 9.7827 5.32017 5.4625C9.64036 1.14233 16.5936 1.14233 30.5 1.14233C44.4063 1.14233 51.3596 1.14233 55.68 5.4625C60 9.7827 60 16.7359 60 30.6423C60 44.5486 60 51.5019 55.68 55.8223C51.3596 60.1423 44.4063 60.1423 30.5 60.1423C16.5936 60.1423 9.64036 60.1423 5.32017 55.8223C1 51.5019 1 44.5486 1 30.6423Z" stroke="#141B34" stroke-width="1.5" stroke-linecap="round"/>
</svg>
