<svg width="363" height="574" viewBox="0 0 363 574" fill="none" xmlns="http://www.w3.org/2000/svg">
<path d="M166.058 573.273V0.54542H202.749V573.273H166.058ZM263.377 189.59C261.587 171.543 253.906 157.523 240.334 147.531C226.761 137.538 208.342 132.541 185.075 132.541C169.265 132.541 155.916 134.778 145.028 139.253C134.141 143.578 125.788 149.619 119.972 157.374C114.304 165.13 111.47 173.93 111.47 183.773C111.172 191.977 112.887 199.136 116.616 205.251C120.494 211.366 125.788 216.661 132.5 221.135C139.212 225.46 146.967 229.263 155.767 232.545C164.567 235.677 173.963 238.362 183.956 240.599L225.121 250.442C245.107 254.917 263.452 260.883 280.156 268.34C296.861 275.798 311.328 284.97 323.558 295.858C335.788 306.746 345.259 319.572 351.971 334.338C358.832 349.104 362.337 366.032 362.486 385.123C362.337 413.163 355.178 437.474 341.009 458.056C326.989 478.489 306.705 494.374 280.156 505.709C253.757 516.895 221.914 522.488 184.627 522.488C147.638 522.488 115.423 516.82 87.9794 505.485C60.6854 494.15 39.3572 477.371 23.995 455.148C8.78196 432.776 0.802557 405.109 0.0568178 372.147H93.7962C94.8402 387.509 99.2401 400.336 106.996 410.627C114.901 420.769 125.415 428.45 138.54 433.67C151.815 438.741 166.804 441.277 183.509 441.277C199.915 441.277 214.158 438.891 226.239 434.118C238.469 429.345 247.94 422.708 254.652 414.207C261.364 405.705 264.719 395.936 264.719 384.899C264.719 374.608 261.662 365.957 255.547 358.947C249.581 351.937 240.781 345.972 229.148 341.05C217.663 336.128 203.569 331.653 186.864 327.626L136.974 315.098C98.3452 305.702 67.8445 291.011 45.4723 271.025C23.1001 251.039 11.9886 224.118 12.1378 190.261C11.9886 162.52 19.3714 138.283 34.2862 117.552C49.3501 96.8203 70.0071 80.6378 96.2571 69.0043C122.507 57.3707 152.337 51.554 185.746 51.554C219.751 51.554 249.432 57.3707 274.787 69.0043C300.291 80.6378 320.128 96.8203 334.297 117.552C348.466 138.283 355.774 162.296 356.222 189.59H263.377Z" fill="#437DD5" fill-opacity="0.3"/>
</svg>
